<svg width="30" height="34" viewBox="0 0 30 34" fill="none" xmlns="http://www.w3.org/2000/svg">
<path d="M10.1303 34C8.99136 33.9389 7.91961 33.4484 7.13613 32.6298C6.19894 31.7393 5.36261 30.7509 4.6419 29.6818C3.51613 28.0898 2.62624 26.3472 1.99914 24.5068C1.28885 22.5269 0.914892 20.4446 0.892409 18.3443C0.837826 16.2833 1.35523 14.2469 2.38858 12.4555C3.14496 11.1642 4.22382 10.0858 5.52222 9.3233C6.80626 8.56406 8.27151 8.15539 9.76802 8.13911C10.8962 8.20502 12.0048 8.45967 13.0466 8.8922C13.8772 9.25311 14.7514 9.50683 15.6477 9.64708C16.6367 9.44246 17.6031 9.1429 18.5331 8.75267C19.6338 8.32821 20.7992 8.09053 21.9801 8.04967C22.1377 8.04967 22.2935 8.04967 22.4438 8.06755C25.0332 8.14171 27.4416 9.39697 28.9647 11.4663C26.5429 12.745 25.0558 15.2609 25.1192 17.9722C25.0953 20.0286 25.9635 21.9968 27.5048 23.3798C28.1983 24.0324 29.006 24.5555 29.8885 24.9236C29.7074 25.4602 29.4991 25.979 29.2781 26.5013C28.7757 27.6556 28.1561 28.7566 27.4287 29.7873C26.7419 30.8198 25.9426 31.7748 25.0449 32.6351C24.2255 33.4381 23.1333 33.9118 21.9801 33.9642C21.0027 33.9214 20.0424 33.695 19.1508 33.297C18.1894 32.8833 17.1561 32.6568 16.1077 32.6298C15.0298 32.6507 13.966 32.876 12.9741 33.2934C12.1174 33.6751 11.2022 33.9127 10.2661 33.9964L10.1303 34ZM15.836 8.04967C15.7002 8.04967 15.5643 8.04967 15.4285 8.03357C15.3999 7.82064 15.3848 7.60616 15.3832 7.39138C15.4425 5.6046 16.1495 3.89825 17.3757 2.58305C18.061 1.82742 18.8916 1.21389 19.8192 0.778134C20.6848 0.338088 21.6308 0.0735176 22.6014 0C22.6286 0.234335 22.6286 0.463303 22.6286 0.681538C22.603 2.44021 21.9339 4.13033 20.7448 5.43979C19.5793 6.98314 17.7824 7.93853 15.836 8.04967Z" fill="black"/>
</svg>
