<svg width="35" height="34" viewBox="0 0 35 34" fill="none" xmlns="http://www.w3.org/2000/svg">
<path d="M0.776993 16.6644C0.778932 24.8634 6.741 31.8444 14.8387 33.1294V21.481H10.6103V16.6644H14.8437V12.9977C14.6544 11.2603 15.2479 9.5287 16.4631 8.2726C17.6783 7.0165 19.3892 6.36607 21.132 6.49771C22.3829 6.51791 23.6306 6.62932 24.8653 6.83105V10.9294H22.7587C22.0334 10.8344 21.3043 11.0739 20.7766 11.5805C20.249 12.0871 19.9799 12.8059 20.0453 13.5344V16.6644H24.6637L23.9253 21.4827H20.0453V33.1294C28.8028 31.7454 34.9438 23.7473 34.0195 14.9295C33.0952 6.11166 25.4291 -0.439074 16.575 0.0230079C7.72093 0.48509 0.7784 7.79822 0.776993 16.6644Z" fill="black"/>
</svg>
