<svg width="36" height="37" viewBox="0 0 36 37" fill="none" xmlns="http://www.w3.org/2000/svg">
<path d="M18.3505 0.459961C19.1015 0.799004 19.3339 1.39831 19.2969 2.1959C19.2538 3.11211 19.3022 4.03275 19.2802 4.95073C19.26 5.77931 18.6894 6.30868 17.912 6.2653C17.286 6.23078 16.7551 5.75895 16.7384 5.12601C16.7076 3.96193 16.7164 2.79608 16.7322 1.63112C16.7401 1.02562 17.1707 0.715793 17.647 0.459961C17.8812 0.459961 18.1163 0.459961 18.3505 0.459961Z" fill="#00683A"/>
<path d="M36 18.909C35.6628 19.6641 35.0658 19.8978 34.2734 19.8606C33.3622 19.8172 32.4465 19.8659 31.5335 19.8438C30.7094 19.8234 30.1829 19.2498 30.2251 18.4681C30.2595 17.8387 30.7288 17.3058 31.3583 17.289C32.5169 17.258 33.6765 17.2669 34.8351 17.2828C35.4374 17.2908 35.7455 17.7237 36 18.2026C36 18.438 36 18.6735 36 18.909Z" fill="#00683A"/>
<path d="M21.8621 30.1833C19.2692 30.1833 16.7221 30.1833 14.1662 30.1833C14.1353 29.6035 14.1327 29.0396 14.0693 28.4828C13.9064 27.0469 13.328 25.7881 12.3199 24.7586C11.0846 23.4972 10.2147 22.0516 9.82294 20.3077C8.80251 15.7682 11.9131 11.0756 16.4852 10.2904C21.0239 9.51141 25.2236 12.3149 26.1754 16.8544C26.7459 19.5765 26.0706 22.0401 24.2243 24.1319C23.4363 25.0242 22.5955 25.8784 22.2601 27.0549C22.062 27.7489 21.9739 28.4757 21.8692 29.1936C21.8242 29.5035 21.8621 29.8266 21.8621 30.1833Z" fill="#00683A"/>
<path d="M14.7701 31.501C16.9334 31.501 19.0579 31.501 21.2167 31.501C21.2167 32.1614 21.2396 32.8058 21.2088 33.4485C21.1876 33.8716 20.8945 34.0752 20.3873 34.0788C19.4972 34.085 18.6071 34.0805 17.7178 34.0805C17.0267 34.0805 16.3364 34.0841 15.6453 34.0797C15.0122 34.0752 14.7736 33.8344 14.771 33.205C14.7683 32.6429 14.7701 32.0808 14.7701 31.501Z" fill="#00683A"/>
<path d="M4.50503 6.07496C4.52704 5.74831 4.74715 5.35615 5.20586 5.12511C5.6769 4.88786 6.17171 4.89672 6.5503 5.25435C7.41841 6.07407 8.2654 6.92035 9.07628 7.79761C9.51122 8.26856 9.42494 9.01038 8.97943 9.4645C8.54185 9.91066 7.81813 9.97794 7.31012 9.60437C7.13227 9.47336 6.97819 9.3087 6.82059 9.15202C6.19812 8.53147 5.57917 7.9065 4.95846 7.28418C4.67407 7.00002 4.48566 6.67426 4.50503 6.07496Z" fill="#00683A"/>
<path d="M7.91246 27.241C8.57544 27.2808 8.96811 27.5065 9.20055 27.9633C9.44003 28.4351 9.42858 28.9318 9.06936 29.3168C8.26904 30.1746 7.44759 31.0165 6.5918 31.8185C6.08555 32.293 5.30371 32.208 4.84412 31.7202C4.39334 31.2413 4.35372 30.4862 4.82211 29.9896C5.59514 29.169 6.3937 28.3723 7.21339 27.5986C7.42734 27.3968 7.75662 27.318 7.91246 27.241Z" fill="#00683A"/>
<path d="M31.4993 30.8578C31.4711 31.3518 31.2598 31.7378 30.8143 31.9679C30.3459 32.2096 29.8828 32.1733 29.4558 31.8688C29.2762 31.7404 29.1221 31.574 28.9645 31.4164C28.3332 30.7852 27.6967 30.1585 27.0786 29.5149C26.5151 28.928 26.509 28.1375 27.0381 27.6223C27.5602 27.1133 28.3227 27.1248 28.8958 27.6825C29.6363 28.4031 30.3591 29.1431 31.0855 29.8779C31.3514 30.1461 31.5099 30.4657 31.4993 30.8578Z" fill="#00683A"/>
<path d="M30.0647 4.96875C30.7329 5.01655 31.1256 5.23609 31.3554 5.69818C31.5852 6.15938 31.5597 6.62236 31.2445 7.02691C31.0006 7.34028 30.7056 7.6147 30.4248 7.89798C29.8789 8.4477 29.3445 9.0116 28.7713 9.53123C28.2536 9.99951 27.4947 9.94817 27.0201 9.46838C26.5438 8.98681 26.4989 8.22905 26.9822 7.71385C27.7456 6.90121 28.5327 6.10981 29.3427 5.34409C29.5655 5.13429 29.9035 5.04931 30.0647 4.96875Z" fill="#00683A"/>
<path d="M2.90194 17.2775C3.47423 17.2775 4.04828 17.2572 4.61968 17.2837C5.16908 17.3094 5.62515 17.7193 5.74753 18.2345C5.87519 18.77 5.67181 19.3286 5.21486 19.6225C5.06255 19.7208 4.87413 19.8164 4.70069 19.819C3.49712 19.8359 2.29268 19.8536 1.09087 19.8182C0.470161 19.7987 0.00176585 19.2029 4.96703e-06 18.5611C-0.00175592 17.9193 0.464878 17.359 1.07943 17.2882C1.33387 17.259 1.59272 17.2651 1.84981 17.2616C2.20023 17.2581 2.55153 17.2607 2.90194 17.2607C2.90194 17.266 2.90194 17.2722 2.90194 17.2775Z" fill="#00683A"/>
<path d="M16.2188 35.3711C17.4153 35.3711 18.5827 35.3711 19.752 35.3711C19.6534 36.004 18.9094 36.598 18.1689 36.6458C17.2682 36.7051 16.4529 36.1855 16.2188 35.3711Z" fill="#00683A"/>
</svg>
