<svg width="36" height="37" viewBox="0 0 36 37" fill="none" xmlns="http://www.w3.org/2000/svg">
<path d="M17.0902 0.459961C17.676 0.459961 18.2618 0.459961 18.8476 0.459961C18.9254 0.480211 19.0022 0.511069 19.0819 0.520712C21.4751 0.807108 23.5071 1.81962 25.1493 3.59297C25.3711 3.83211 25.5862 3.88997 25.8868 3.83886C26.9038 3.66625 27.9265 3.70579 28.9176 3.95747C32.5678 4.88609 34.8697 7.19173 35.7916 10.8667C35.8771 11.2051 35.9309 11.5523 36 11.8946C36 12.4828 36 13.0711 36 13.6593C35.9779 13.7113 35.9433 13.7625 35.9366 13.8165C35.5371 16.853 34.0044 19.1288 31.3732 20.662C31.1648 20.7835 31.0841 20.9118 31.0851 21.1567C31.0956 23.2145 31.0918 25.2733 31.0899 27.3311C31.0889 28.0939 30.7864 28.3995 30.0297 28.3995C22.0186 28.4005 14.0066 28.4005 5.99558 28.3995C5.235 28.3995 4.92866 28.0919 4.92866 27.3369C4.92866 25.2791 4.9277 23.2203 4.93538 21.1625C4.93634 20.9426 4.89025 20.8095 4.67897 20.69C0.348865 18.2387 -1.23759 13.0441 1.03262 8.61985C2.24935 6.24768 4.20842 4.75495 6.77056 4.0539C7.10956 3.96133 7.40246 4.03269 7.6339 4.28726C7.87878 4.55534 7.91047 4.87259 7.7645 5.20527C7.69824 5.3557 7.62814 5.5042 7.56091 5.65367C6.91557 7.08565 6.5929 8.59092 6.55737 10.1579C6.54105 10.8821 7.14701 11.3295 7.72897 11.0335C8.04396 10.8734 8.16592 10.5947 8.17744 10.2524C8.22258 8.90239 8.44825 7.58709 9.01869 6.35664C10.3795 3.41843 12.6132 1.51972 15.7583 0.731893C16.1971 0.621963 16.6456 0.549641 17.0902 0.459961ZM8.20241 17.9012C8.22834 18.0748 8.24178 18.2513 8.28212 18.421C8.71426 20.2493 9.73029 21.7632 10.8846 23.1914C11.215 23.6002 11.8286 23.5144 12.1215 23.0795C12.3328 22.7661 12.2886 22.4132 12.0091 22.0072C11.5645 21.3611 11.1045 20.7228 10.6954 20.0535C10.2681 19.3535 9.90411 18.6167 9.82536 17.7749C9.81096 17.6264 9.77446 17.4711 9.70916 17.3381C9.54014 16.9919 9.15025 16.8318 8.79205 16.9379C8.38103 17.0604 8.19281 17.3738 8.20241 17.9012ZM27.7969 17.8752C27.8151 17.3236 27.5539 16.9659 27.0891 16.907C26.6455 16.8511 26.2757 17.15 26.2047 17.6968C26.1115 18.421 25.8743 19.0941 25.5027 19.7054C25.0052 20.526 24.4502 21.311 23.9258 22.1152C23.6406 22.553 23.7146 23.0371 24.0939 23.2994C24.4684 23.5578 24.9457 23.4874 25.2319 23.0679C25.8446 22.1692 26.462 21.2695 27.0085 20.3293C27.4454 19.581 27.7412 18.7604 27.7969 17.8752ZM18.8092 20.1885C18.8015 20.1885 18.7929 20.1885 18.7852 20.1885C18.7852 19.3197 18.8025 18.4499 18.7775 17.582C18.767 17.2137 18.4462 16.9466 18.0803 16.907C17.7471 16.8704 17.3783 17.0787 17.2698 17.4027C17.2122 17.5763 17.2007 17.771 17.2007 17.9572C17.1959 19.4373 17.1968 20.9185 17.1987 22.3987C17.1987 22.527 17.2045 22.6581 17.2276 22.7844C17.29 23.1316 17.4974 23.3456 17.8441 23.4132C18.3934 23.5202 18.7929 23.1769 18.8063 22.552C18.8227 21.7632 18.8092 20.9764 18.8092 20.1885Z" fill="#00683A"/>
<path d="M18.0028 30.0124C22.0195 30.0124 26.0362 30.0124 30.052 30.0124C30.9017 30.0124 31.1614 30.2687 31.1604 31.1108C31.1595 31.8373 31.1768 32.5658 31.144 33.2915C31.0619 35.0947 29.6397 36.4362 27.7945 36.4532C26.322 36.4665 24.8495 36.4561 23.378 36.4561C18.36 36.4561 13.343 36.458 8.325 36.4551C6.88535 36.4542 5.80006 35.8364 5.18597 34.5583C4.97355 34.1155 4.90113 33.5866 4.86347 33.0909C4.81133 32.3908 4.84802 31.6841 4.85285 30.9802C4.85671 30.3094 5.15797 30.0143 5.84738 30.0143C9.89982 30.0114 13.9513 30.0124 18.0028 30.0124Z" fill="#00683A"/>
</svg>
