<svg width="20" height="20" viewBox="0 0 20 20" fill="none" xmlns="http://www.w3.org/2000/svg">
<path d="M2.08335 8.75C0.935015 8.75 0 9.68502 0 10.8334V17.5001C0 18.6485 0.935015 19.5835 2.08335 19.5835H4.58339C5.05258 19.5835 5.48423 19.4252 5.83341 19.1618V8.75H2.08335Z" fill="black"/>
<path d="M19.9998 11.875C19.9998 11.3742 19.8015 10.9075 19.4573 10.5633C19.8465 10.1375 20.0448 9.56661 19.9906 8.97246C19.8931 7.91326 18.9389 7.08325 17.8173 7.08325H12.6697C12.9247 6.30906 13.333 4.88989 13.333 3.74988C13.333 1.94235 11.7972 0.416504 10.833 0.416504C9.96713 0.416504 9.34876 0.904012 9.32212 0.924012C9.2238 1.00319 9.1663 1.12319 9.1663 1.24984V4.0757L6.76626 9.27496L6.66626 9.32578V18.2576C7.34459 18.5776 8.20292 18.7501 8.74961 18.7501H16.3989C17.3064 18.7501 18.1006 18.1384 18.2873 17.2943C18.3831 16.8601 18.3273 16.4226 18.1364 16.0426C18.7523 15.7326 19.1665 15.0984 19.1665 14.375C19.1665 14.08 19.099 13.7975 18.9706 13.5417C19.5865 13.2317 19.9998 12.5975 19.9998 11.875Z" fill="black"/>
</svg>
