<svg width="35" height="34" viewBox="0 0 35 34" fill="none" xmlns="http://www.w3.org/2000/svg">
<path d="M17.5093 0.00201166C22.0726 0.0481384 26.2496 1.29533 29.8501 4.24213C32.3332 6.27348 34.0757 8.82198 34.7382 12.0446C35.4683 15.6 34.647 18.8164 32.578 21.7259C30.9519 24.0137 28.9107 25.8809 26.7358 27.6018C23.9158 29.8336 20.9865 31.8987 17.8244 33.6027C17.4676 33.7952 17.0951 33.9611 16.6845 33.9939C16.1201 34.0391 15.8796 33.8369 15.9309 33.2665C15.9934 32.5648 16.1236 31.8685 16.226 31.1704C16.4613 29.5675 16.0324 28.9989 14.4445 28.755C10.3864 28.1305 6.75814 26.5666 3.83224 23.555C1.32657 20.9755 -0.0677882 17.8868 0.00253738 14.2073C0.0598397 11.2197 1.14251 8.61175 3.02307 6.35242C5.66592 3.17411 9.09798 1.36275 13.0371 0.473037C14.507 0.141279 15.9977 -0.0201647 17.5093 0.00201166ZM17.3782 14.2862C17.412 14.2774 17.4468 14.2685 17.4806 14.2596C18.4339 15.5716 19.4367 16.8507 20.3206 18.2088C20.792 18.9335 21.3286 19.2023 22.1421 19.1012C22.6448 19.0391 22.7064 19.0258 22.7064 18.4997C22.7073 16.3185 22.7142 14.1372 22.7047 11.9568C22.6977 10.4205 22.9157 10.6529 21.3902 10.6369C20.8936 10.6316 20.8163 10.7114 20.8154 11.2241C20.812 12.521 20.8163 13.8179 20.8102 15.1147C20.8094 15.2301 20.8797 15.3755 20.7251 15.4775C19.7857 14.1833 18.8498 12.8944 17.9156 11.6056C17.1958 10.6129 17.1967 10.6121 15.9855 10.6351C15.9569 10.636 15.9274 10.6369 15.8987 10.6351C15.6035 10.6227 15.4872 10.7753 15.4872 11.0671C15.4907 13.6023 15.4907 16.1366 15.4863 18.6718C15.4855 18.9548 15.62 19.0799 15.8753 19.087C16.2069 19.0958 16.5395 19.0834 16.872 19.0932C17.2445 19.1047 17.3842 18.9264 17.3808 18.5547C17.3704 17.3022 17.3773 16.0497 17.3773 14.7972C17.3782 14.6269 17.3782 14.4565 17.3782 14.2862ZM23.9115 14.8628C23.9115 16.0852 23.9193 17.3084 23.9072 18.5308C23.9037 18.9229 24.0513 19.0949 24.442 19.0932C25.9579 19.0852 27.4738 19.087 28.9897 19.0914C29.3274 19.0923 29.5028 18.9637 29.4837 18.5946C29.4681 18.2859 29.4655 17.9755 29.4846 17.6668C29.508 17.2747 29.3353 17.1523 28.968 17.1621C28.2318 17.1816 27.4955 17.1674 26.7593 17.1674C25.8042 17.1674 25.8172 17.1674 25.8077 16.2102C25.8042 15.898 25.8936 15.8146 26.194 15.8208C27.1178 15.8403 28.0425 15.8208 28.9663 15.8315C29.3274 15.8359 29.5072 15.7037 29.4855 15.3152C29.4681 15.0065 29.4707 14.696 29.4846 14.3874C29.5011 14.0254 29.35 13.8888 28.9958 13.8968C28.2456 13.9137 27.4946 13.9021 26.7436 13.9021C25.8007 13.9021 25.8129 13.9021 25.8086 12.9308C25.8077 12.6407 25.8858 12.56 26.1689 12.5653C27.0927 12.5831 28.0173 12.5627 28.9411 12.5769C29.3222 12.5831 29.5115 12.4491 29.4863 12.0384C29.469 11.7599 29.4672 11.4778 29.4863 11.1993C29.5158 10.785 29.3613 10.6218 28.9394 10.6271C27.4521 10.6458 25.9648 10.6333 24.4776 10.6351C23.9896 10.636 23.915 10.715 23.9141 11.2392C23.9098 12.4465 23.9115 13.6546 23.9115 14.8628ZM5.7484 14.8539C5.7484 16.0914 5.75534 17.3288 5.74406 18.5654C5.74059 18.9441 5.89165 19.0967 6.25804 19.0949C7.77395 19.0878 9.28986 19.0878 10.8049 19.0949C11.1661 19.0967 11.3423 18.9477 11.3284 18.5689C11.3171 18.2744 11.3171 17.9799 11.3284 17.6854C11.3423 17.3146 11.1939 17.1541 10.8162 17.1603C9.90716 17.1762 8.9964 17.1425 8.08824 17.1762C7.68886 17.1913 7.61507 17.0538 7.61941 16.6777C7.63851 14.8371 7.62201 12.9956 7.6333 11.1549C7.6359 10.7815 7.51609 10.6014 7.13321 10.6316C6.904 10.6493 6.67131 10.6351 6.44037 10.6351C5.77531 10.6351 5.75014 10.6591 5.74927 11.319C5.74753 12.497 5.7484 13.675 5.7484 14.8539ZM12.379 14.8823C12.379 16.0896 12.3911 17.2978 12.372 18.5051C12.3651 18.9211 12.5057 19.1109 12.9181 19.0914C13.1916 19.079 13.4669 19.0799 13.7403 19.0914C14.1536 19.1091 14.3012 18.9095 14.2908 18.4997C14.2726 17.7493 14.2856 16.9979 14.2856 16.2466C14.2856 14.5674 14.2804 12.8891 14.2899 11.2108C14.2925 10.8072 14.1588 10.5996 13.7351 10.6316C13.4625 10.652 13.1864 10.6493 12.9129 10.6316C12.524 10.6067 12.3686 10.7682 12.3738 11.1718C12.3885 12.4083 12.379 13.6458 12.379 14.8823Z" fill="black"/>
</svg>
