<svg width="22" height="18" viewBox="0 0 22 18" fill="none" xmlns="http://www.w3.org/2000/svg">
<path d="M9.19977 18.0001C6.82469 17.9722 4.53969 17.4622 2.47856 16.1595C0.0829707 14.6468 -0.643911 12.2052 0.595802 9.64563C2.04957 6.64458 4.29264 4.40933 7.31076 3.01917C7.878 2.7579 8.53175 2.61194 9.15606 2.5678C10.3449 2.48311 11.0754 3.32729 10.9514 4.53276C10.922 4.81566 10.8462 5.09315 10.8078 5.37514C10.7846 5.54362 10.7936 5.7166 10.7882 5.88688C10.9728 5.87157 11.1664 5.88508 11.3412 5.83553C12.0119 5.64453 12.6647 5.36613 13.347 5.24991C13.9205 5.15261 14.5403 5.14991 15.1111 5.25982C16.119 5.45353 16.5712 6.20852 16.3946 7.22749C16.3464 7.50678 16.2661 7.78337 16.1734 8.05095C16.0601 8.3771 16.1752 8.51854 16.4766 8.6645C17.0876 8.95911 17.7431 9.22939 18.2452 9.66725C19.1951 10.4952 19.3868 11.5971 18.9864 12.789C18.5137 14.1954 17.5076 15.1621 16.3312 15.9658C14.1898 17.4298 11.7826 17.9722 9.19977 18.0001ZM8.28291 16.7009C8.50588 16.7009 8.72974 16.7163 8.95093 16.6982C11.0281 16.5361 12.918 15.909 14.386 14.336C15.9923 12.6151 15.6561 10.2817 13.6565 9.05371C11.8112 7.92122 9.81338 7.70409 7.72549 8.04194C6.05767 8.31133 4.54772 8.93568 3.34636 10.1745C1.62503 11.9493 1.90508 14.2693 3.9894 15.5883C5.30136 16.4189 6.75512 16.7181 8.28291 16.7009Z" fill="black"/>
<path d="M16.1341 -5.95397e-05C19.9585 -0.00276238 22.784 3.65868 21.8038 7.36878C21.7771 7.46968 21.7485 7.57149 21.712 7.66969C21.5336 8.1517 21.1064 8.38685 20.6578 8.25261C20.2395 8.12737 20.0317 7.70483 20.087 7.21291C20.1601 6.56243 20.3046 5.89303 20.2207 5.25786C19.9327 3.06226 18.0428 1.59281 15.8211 1.74958C15.6436 1.76219 15.467 1.79102 15.2895 1.81084C14.7776 1.8667 14.3807 1.59371 14.2969 1.12793C14.2077 0.635108 14.4877 0.238691 15.03 0.136884C15.3948 0.0684124 15.7667 0.0440868 16.1341 -5.95397e-05Z" fill="black"/>
<path d="M16.0912 3.03412C17.9856 3.03412 19.3306 4.74862 18.9274 6.5388C18.8097 7.06135 18.4538 7.34785 18.0266 7.26406C17.5923 7.17937 17.3996 6.80278 17.5058 6.24689C17.7073 5.19369 16.9956 4.41167 15.9352 4.52068C15.409 4.57474 15.0656 4.3495 15.0112 3.91344C14.955 3.46747 15.2154 3.16295 15.7363 3.07376C15.8808 3.04943 16.0297 3.04133 16.0912 3.03412Z" fill="black"/>
<path d="M8.28294 16.7009C6.75515 16.718 5.30139 16.4189 3.98854 15.5882C1.90511 14.2692 1.62416 11.9493 3.34549 10.1744C4.54775 8.93471 6.05681 8.31036 7.72462 8.04188C9.81251 7.70492 11.8103 7.92115 13.6556 9.05364C15.6552 10.2816 15.9915 12.6151 14.3852 14.3359C12.9163 15.9089 11.0273 16.536 8.95007 16.6982C8.72977 16.7162 8.50591 16.7009 8.28294 16.7009ZM8.22764 15.836C9.33982 15.7729 10.4252 15.3224 11.2038 14.2827C12.3071 12.8115 11.9129 10.9051 10.361 10.0879C8.61026 9.16626 6.24321 9.86089 5.2559 11.5862C4.51118 12.8881 4.84028 14.4233 6.04878 15.2404C6.65972 15.654 7.34647 15.8197 8.22764 15.836Z" fill="white"/>
<path d="M8.22763 15.836C7.34645 15.8189 6.65971 15.6531 6.04877 15.2405C4.84027 14.4233 4.51028 12.889 5.25589 11.5863C6.2432 9.86184 8.61025 9.16721 10.361 10.088C11.9138 10.9051 12.3071 12.8106 11.2038 14.2828C10.4252 15.3225 9.3398 15.7729 8.22763 15.836ZM7.08781 14.4639C7.79596 14.4648 8.4399 13.8891 8.44525 13.2521C8.4506 12.6737 8.0225 12.2557 7.42137 12.2539C6.70252 12.2512 6.06215 12.8476 6.06393 13.517C6.06571 14.0612 6.50095 14.4639 7.08781 14.4639ZM9.04637 11.5736C8.85105 11.8664 8.68962 12.0421 8.62452 12.2484C8.60668 12.307 8.86711 12.5386 9.00802 12.5458C9.28361 12.5611 9.50302 12.3737 9.46199 12.0746C9.44326 11.9331 9.25507 11.8151 9.04637 11.5736Z" fill="black"/>
<path d="M7.08769 14.4638C6.50083 14.4638 6.06648 14.0602 6.0647 13.516C6.06292 12.8466 6.70329 12.2502 7.42214 12.2529C8.02327 12.2556 8.45137 12.6736 8.44602 13.2511C8.43978 13.8899 7.79495 14.4647 7.08769 14.4638Z" fill="white"/>
<path d="M9.04643 11.5737C9.25603 11.8151 9.44332 11.9331 9.46294 12.0746C9.50397 12.3737 9.28457 12.5611 9.00898 12.5458C8.86806 12.5377 8.60674 12.307 8.62547 12.2485C8.68968 12.0422 8.85111 11.8665 9.04643 11.5737Z" fill="white"/>
</svg>
