<svg width="14" height="17" viewBox="0 0 14 17" fill="none" xmlns="http://www.w3.org/2000/svg">
<path fill-rule="evenodd" clip-rule="evenodd" d="M6.44149 0.388916C5.1502 0.388916 4.00379 1.21521 3.59545 2.44023L3.39033 3.05558H1.44443C0.892143 3.05558 0.444427 3.5033 0.444427 4.05558C0.444427 4.60787 0.892143 5.05558 1.44443 5.05558V15.5C1.44443 16.0523 1.89214 16.5 2.44443 16.5H11.1111C11.6634 16.5 12.1111 16.0523 12.1111 15.5V5.05558C12.6634 5.05558 13.1111 4.60787 13.1111 4.05558C13.1111 3.5033 12.6634 3.05558 12.1111 3.05558H10.1652L9.96006 2.44023C9.55172 1.21521 8.40531 0.388916 7.11402 0.388916H6.44149ZM8.05683 3.05558C7.91585 2.65667 7.53841 2.38892 7.11402 2.38892H6.44149C6.0171 2.38892 5.63966 2.65667 5.49868 3.05558H8.05683ZM3.44443 5.16669V14.5H10.1111V5.16669H3.44443Z" fill="black"/>
</svg>
