<svg width="33" height="34" viewBox="0 0 33 34" fill="none" xmlns="http://www.w3.org/2000/svg">
<path d="M16.8838 13.7941V20.315H25.9386C25.0959 24.4588 21.568 26.8397 16.8838 26.8397C11.4277 26.7646 7.0441 22.3203 7.0441 16.8637C7.0441 11.4071 11.4277 6.96274 16.8838 6.88765C19.1517 6.88493 21.3497 7.67196 23.1005 9.11357L28.0134 4.20067C22.3779 -0.753679 14.1477 -1.39091 7.81675 2.63694C1.48581 6.66478 -1.4243 14.3897 0.675445 21.5935C2.77519 28.7974 9.38017 33.7488 16.8838 33.7442C25.3245 33.7442 33 27.605 33 16.8627C32.987 15.8285 32.8602 14.7987 32.6221 13.7922L16.8838 13.7941Z" fill="black"/>
</svg>
