<svg width="21" height="20" viewBox="0 0 21 20" fill="none" xmlns="http://www.w3.org/2000/svg">
<path d="M0.00195312 10.002C0.00311667 14.9214 3.58036 19.11 8.43895 19.881V12.892H5.90195V10.002H8.44195V7.80198C8.32841 6.75952 8.68447 5.72058 9.41359 4.96692C10.1427 4.21325 11.1693 3.823 12.215 3.90198C12.9655 3.9141 13.7141 3.98095 14.455 4.10198V6.56098H13.191C12.7558 6.50399 12.3183 6.64771 12.0017 6.95165C11.6851 7.25559 11.5237 7.68687 11.563 8.12398V10.002H14.334L13.891 12.893H11.563V19.881C16.8174 19.0506 20.502 14.2518 19.9475 8.96106C19.3929 3.67035 14.7932 -0.260088 9.48078 0.0171617C4.16831 0.294411 0.0027976 4.68229 0.00195312 10.002Z" fill="black"/>
</svg>
