<svg width="36" height="36" viewBox="0 0 36 36" fill="none" xmlns="http://www.w3.org/2000/svg">
<path d="M31.4986 35.46C22.4995 35.46 13.4994 35.46 4.50024 35.46C4.4598 35.4395 4.42124 35.4079 4.37892 35.4005C1.7231 34.9355 0.00301907 32.9242 0.00207863 30.274C0.00113818 20.6496 0.00113818 11.0253 0.00207863 1.40088C0.00207863 0.509115 0.511801 0.00139484 1.40805 0.00139484C9.90123 -0.000464946 18.3944 -0.000464946 26.8876 0.00139484C27.0381 0.00139484 27.1942 0.00883396 27.3381 0.0478894C27.97 0.219919 28.2851 0.682075 28.286 1.44645C28.2898 3.77768 28.287 6.10892 28.287 8.44016C28.287 8.57499 28.287 8.70889 28.287 8.86512C28.4647 8.86512 28.5926 8.86512 28.7205 8.86512C30.6071 8.86512 32.4927 8.8865 34.3783 8.85489C35.1645 8.84187 35.7128 9.09759 35.9986 9.83313C35.9986 16.8975 35.9986 23.9619 35.9986 31.0272C35.9761 31.0784 35.9422 31.1276 35.9328 31.1806C35.6093 33.0116 34.5739 34.3023 32.8594 35.0527C32.4287 35.2405 31.9538 35.327 31.4986 35.46ZM28.287 11.3758C28.287 11.5534 28.287 11.7013 28.287 11.8491C28.287 17.8097 28.286 23.7703 28.2889 29.73C28.2889 30.0294 28.303 30.3298 28.3265 30.6283C28.444 32.104 29.9647 33.179 31.413 32.8163C32.6742 32.5002 33.3946 31.5554 33.3955 30.1931C33.3983 24.0363 33.3964 17.8795 33.3955 11.7227C33.3955 11.6111 33.3842 11.4995 33.3776 11.3758C31.682 11.3758 30.0155 11.3758 28.287 11.3758ZM14.1709 22.7995C11.7059 22.7995 9.24198 22.7986 6.77706 22.8014C6.57957 22.8014 6.37831 22.8135 6.18646 22.8544C5.5479 22.993 5.1294 23.6281 5.24225 24.266C5.36639 24.9652 5.87047 25.3316 6.7291 25.3316C11.6937 25.3335 16.6574 25.3326 21.622 25.3307C21.7847 25.3307 21.9493 25.3195 22.1101 25.2935C22.8183 25.1791 23.2894 24.4501 23.1042 23.7666C22.9321 23.1324 22.4468 22.8005 21.6709 22.8005C19.1703 22.7986 16.6706 22.7995 14.1709 22.7995ZM14.1568 30.406C16.633 30.406 19.1092 30.407 21.5854 30.4042C21.7828 30.4042 21.9841 30.393 22.176 30.3502C22.87 30.1977 23.2885 29.4817 23.0919 28.8048C22.9067 28.1697 22.4365 27.873 21.6004 27.873C16.6593 27.8721 11.7182 27.8721 6.77706 27.8739C6.59085 27.8739 6.40182 27.8832 6.21938 27.9158C5.58269 28.0292 5.13504 28.6671 5.23473 29.3013C5.34664 30.0118 5.85825 30.4033 6.69242 30.4042C9.18085 30.407 11.6693 30.406 14.1568 30.406ZM14.168 15.1791C16.7242 15.1791 19.2803 15.1856 21.8364 15.1754C22.7872 15.1716 23.3929 14.2994 23.0553 13.4588C22.8521 12.952 22.3838 12.6665 21.7433 12.6656C16.7016 12.6647 11.6589 12.6647 6.61719 12.6656C6.54759 12.6656 6.47706 12.6646 6.40747 12.6693C5.63724 12.727 5.0993 13.4309 5.2526 14.1776C5.38238 14.8071 5.87329 15.1781 6.6059 15.1791C9.12536 15.1819 11.6467 15.18 14.168 15.1791ZM14.1709 20.2507C16.6235 20.2507 19.0772 20.2507 21.5299 20.2498C21.6935 20.2498 21.8571 20.2488 22.0198 20.234C22.7825 20.1624 23.3026 19.411 23.0985 18.6829C22.9236 18.0599 22.443 17.7288 21.6916 17.7288C16.6809 17.7279 11.6693 17.7279 6.65857 17.7307C6.49681 17.7307 6.33129 17.7493 6.17424 17.7883C5.36733 17.9892 4.97705 18.8763 5.37768 19.5988C5.65699 20.1028 6.11687 20.2554 6.67173 20.2535C9.17144 20.247 11.6712 20.2507 14.1709 20.2507ZM14.1803 6.34418C14.1803 6.34139 14.1803 6.3386 14.1803 6.33674C12.9088 6.33674 11.6373 6.32744 10.3658 6.34046C9.58054 6.3479 9.02097 6.89003 9.02755 7.59674C9.0332 8.30439 9.60123 8.8521 10.378 8.85489C12.8975 8.86326 15.417 8.86047 17.9374 8.85582C18.3389 8.85489 18.6963 8.72191 18.9587 8.40854C19.2841 8.02171 19.3668 7.57722 19.1703 7.11506C18.969 6.64268 18.5975 6.35255 18.0653 6.3479C16.7693 6.33674 15.4753 6.34418 14.1803 6.34418Z" fill="#00683A"/>
</svg>
